<?xml version="1.0" encoding="utf-8"?>
<!-- Generator: Adobe Illustrator 16.0.0, SVG Export Plug-In . SVG Version: 6.00 Build 0)  -->
<!DOCTYPE svg PUBLIC "-//W3C//DTD SVG 1.1//EN" "http://www.w3.org/Graphics/SVG/1.1/DTD/svg11.dtd">
<svg version="1.1" id="Layer_1" xmlns="http://www.w3.org/2000/svg" xmlns:xlink="http://www.w3.org/1999/xlink" x="0px" y="0px"
	 width="439.376px" height="210.571px" viewBox="0 0 439.376 210.571" enable-background="new 0 0 439.376 210.571"
	 xml:space="preserve">
<polygon fill="#FFFFFF" points="140.583,210.571 0,0 439.376,0 "/>
<g>
	<g>
		<path fill-rule="evenodd" clip-rule="evenodd" fill="#F37920" d="M125.846,29.35l7.906,6.857c2.905,2.557,3.683,5.958,3.683,9.446
			c0,8.349-8.6,12.288-11.527,19.288c-0.828,1.977-1.417,4.177-1.251,6.332c0.064,0.82,0.569,4.229,1.563,4.461
			c7.438,1.744,13.523-3.488,11.137-11.824c-0.568-2.269-0.973-3.211-2.016-4.605h0.463l7.906,6.976
			c1.394,1.859,2.558,3.139,2.558,5.461c0.432,6.68-5.054,11.781-10.983,11.781c-2.67,0-4.881-0.931-6.51-2.326l-9.067-7.905
			c-2.673-2.321-3.286-5.088-3.286-8.576c0-7.869,6.373-12.414,9.268-19.179c1.189-2.782,1.606-5.367,1.588-8.393
			c-0.014-2.398-0.004-5.522-1.707-7.43L125.846,29.35z"/>
		<g>
			<g>
				<path fill-rule="evenodd" clip-rule="evenodd" fill="#003974" d="M145.353,89.81c0.024,0.022,8.773,7.491,9.493,8.115
					l-0.476,0.134c-2.555-2.125-5.624-3.117-9.283-3.27c-3.366-0.143-6.505,0.739-9.608,1.881c-1.398,0.516-2.788,1.058-4.175,1.612
					c-2.068,0.83-4.362,1.381-6.557,1.12c-3.389-0.404-6.543-2.868-9.188-5.253l-7.695-6.635c0.039,0.023,0.437-0.138,0.473-0.119
					c4.526,2.563,8.725,3.785,14.236,3.016c2.15-0.298,10.068-4.146,12.4-4.165c1.422-0.013,3-0.167,4.372,0.221
					C142.103,87.246,143.298,88.272,145.353,89.81z"/>
			</g>
		</g>
	</g>
	<g>
		<path fill="#003974" d="M158.506,80.156c-1.708-0.534-2.076-0.819-2.076-1.612c0-0.979,0.905-1.184,1.663-1.184
			c0.83,0,2.811,0.2,2.83,0.203l0.118,0.013l0.067-1.599l-0.094-0.017c-0.018-0.004-1.674-0.338-3.01-0.338
			c-2.203,0-3.416,1.044-3.416,2.938c0,1.876,0.918,2.491,2.977,3.166c1.47,0.446,1.96,0.716,1.96,1.421
			c0,0.964-0.524,1.374-1.751,1.374c-0.9,0-2.809-0.216-2.828-0.218l-0.117-0.013l-0.103,1.645l0.101,0.018
			c0.017,0.003,1.773,0.307,3.076,0.307c2.404,0,3.477-0.978,3.477-3.171C161.38,81.296,160.504,80.817,158.506,80.156z"/>
		<path fill="#003974" d="M168.58,75.796h-3.624v10.302h1.869v-3.086h1.755c2.203,0,3.519-1.388,3.519-3.709
			C172.099,77.042,170.849,75.796,168.58,75.796z M168.58,81.287h-1.755v-3.766h1.755c1.091,0,1.62,0.582,1.62,1.782
			C170.2,80.043,169.99,81.287,168.58,81.287z"/>
		<polygon fill="#003974" points="182.206,84.36 177.69,84.36 177.69,81.817 181.331,81.817 181.331,80.122 177.69,80.122 
			177.69,77.521 182.206,77.521 182.206,75.796 175.851,75.796 175.851,86.099 182.206,86.099 		"/>
		<path fill="#003974" d="M189.68,77.42c0.757,0,2.46,0.2,2.477,0.202l0.122,0.015l0.067-1.658l-0.093-0.018
			c-0.018-0.005-1.629-0.339-2.791-0.339c-3.151,0-3.797,2.135-3.797,5.341c0,3.27,0.636,5.296,3.797,5.296
			c1.033,0,2.699-0.281,2.77-0.294l0.098-0.015l-0.051-1.674l-0.119,0.011c-0.02,0.002-1.765,0.189-2.436,0.189
			c-1.645,0-2.145-0.822-2.145-3.514C187.579,78.247,188.069,77.42,189.68,77.42z"/>
		<rect x="195.978" y="75.796" fill="#003974" width="1.869" height="10.302"/>
		<path fill="#003974" d="M203.69,84.017h3.411l0.597,2.082h1.857l-2.45-10.216l-0.02-0.086h-3.279l-2.47,10.165l-0.031,0.138h1.86
			L203.69,84.017z M205.612,77.448l1.127,4.829h-2.645l1.156-4.829H205.612z"/>
		<polygon fill="#003974" points="218.772,84.345 214.96,84.345 214.96,75.796 213.118,75.796 213.118,86.099 218.772,86.099 		"/>
		<rect x="222.425" y="75.796" fill="#003974" width="1.869" height="10.302"/>
		<polygon fill="#003974" points="227.476,77.595 230.113,77.595 230.113,86.099 231.953,86.099 231.953,77.595 234.517,77.595 
			234.517,75.796 227.476,75.796 		"/>
		<polygon fill="#003974" points="242.752,75.796 240.827,79.69 238.917,75.858 238.886,75.796 236.812,75.796 239.914,81.703 
			239.914,86.099 241.754,86.099 241.754,81.703 244.828,75.796 		"/>
		<polygon fill="#003974" points="176.608,102.23 178.448,102.23 178.448,98.559 182.089,98.559 182.089,96.85 178.448,96.85 
			178.448,93.666 182.963,93.666 182.963,91.928 176.608,91.928 		"/>
		<rect x="186.612" y="91.928" fill="#003974" width="1.869" height="10.302"/>
		<polygon fill="#003974" points="194.601,91.928 192.761,91.928 192.761,102.23 198.415,102.23 198.415,100.479 194.601,100.479 		
			"/>
		<polygon fill="#003974" points="207.259,99.518 205.08,92.009 205.058,91.928 202.167,91.928 202.167,102.23 204.007,102.23 
			204.007,94.06 204.028,94.06 206.308,101.743 206.332,101.821 208.188,101.821 210.476,94.06 210.482,102.23 212.321,102.23 
			212.321,91.928 209.476,91.928 		"/>
		<path fill="#003974" d="M220.181,96.288c-1.708-0.534-2.076-0.82-2.076-1.613c0-0.979,0.905-1.182,1.664-1.182
			c0.828,0,2.809,0.198,2.83,0.202l0.117,0.014l0.066-1.6l-0.094-0.019c-0.017-0.003-1.672-0.338-3.007-0.338
			c-2.204,0-3.418,1.044-3.418,2.939c0,1.876,0.919,2.492,2.977,3.164c1.47,0.446,1.96,0.716,1.96,1.423
			c0,0.962-0.524,1.372-1.752,1.372c-0.9,0-2.808-0.216-2.827-0.217l-0.118-0.014l-0.1,1.646l0.098,0.019
			c0.018,0.001,1.773,0.306,3.08,0.306c2.4,0,3.474-0.979,3.474-3.17C223.055,97.428,222.181,96.949,220.181,96.288z"/>
	</g>
	<path fill="#003974" d="M247.386,65.012c-1.55-0.214-2.138-1.094-3.938-3.651l-8.608-12.314l6.82-9.291
		c0.703-0.956,2.224-1.533,3.535-1.762c0.847-0.263,1.057-1.142,1.105-1.432h-9.53c0,0.227,0.08,1.123,1.098,1.549
		c1.022,0.395,1.596,1.297,0.638,2.628l-4.984,6.644l-4.303-6.434c-1.366-2.043-0.554-2.818,0.704-3.012
		c0.896-0.257,1.013-1.126,1.023-1.375h-12.632c-0.006,0.249,0.068,1.084,1.108,1.479c1.286,0.311,2.409,1.1,3.358,2.526
		l7.119,10.736l-6.861,9.503c-1.297,1.816-1.789,2.653-2.784,3.321c-0.817,0.595-1.7,0.306-2.086,0.041V64.16
		c-0.798-0.687-1.446-1.723-1.944-2.967c-1.686-4.093-7.186-18.111-9.918-25.143h-2.955c-3.818,9.374-9.364,23.225-11.002,26.419
		c-0.92,1.725-2.376,2.467-3.63,2.576c0,0-3.363,0.552-3.711-1.891c-0.052-0.505-0.052-1.039-0.052-1.793V42.058
		c0-2.42,0.781-3.799,3.077-4.11v-0.004c1.073-0.294,0.997-1.382,0.997-1.382h-8.207L169.36,58.675l-10.952-22.112h-8.808
		c0,0-0.027,1.26,0.895,1.334v0.01c1.771,0.12,3.188,0.75,3.439,3.768v18.453c0,1.066-0.128,2-0.21,2.811
		c-0.171,1.103-0.893,1.699-2.3,1.974v0.004c-1.188,0.274-1.265,1.228-1.265,1.475h9.655v-0.12c-0.039-0.33-0.241-1.02-1.251-1.348
		c-1.43-0.27-2.193-0.871-2.33-1.984c-0.169-0.811-0.212-1.745-0.212-2.811V44.443h0.085l10.695,21.946h1.021l10.997-21.262h0.126
		v16.234c0,1.149,0,1.791-0.17,2.6c-0.125,0.574-0.971,0.837-2.191,0.988c-1.112,0.337-1.188,1.207-1.186,1.441h8.982h1.074h2.935
		h0.506h8.362c0,0,0.037-1-1.189-1.522c-1.114-0.431-1.395-1.525-0.902-2.908l1.818-5.07h11.096l1.861,4.986
		c0.553,1.411,0.452,2.512-0.705,2.967c-1.231,0.447-1.333,1.316-1.336,1.548h9.51h0.273h0.483h1.671h0.184h0.427h5.339
		c0,0,0.148-1.084-1.191-1.593l0.002-0.012c-0.766-0.461-0.873-1.541,0.57-3.551l5.922-8.18l6.008,8.692
		c1.496,2.229,0.853,2.981-0.242,3.221c-1.059,0.399-1.153,1.202-1.156,1.424h12.443C248.144,66.39,248.257,65.562,247.386,65.012z
		 M197.805,54.97l4.91-12.444h0.089l4.506,12.444H197.805z"/>
</g>
</svg>
